<?xml version="1.0" standalone="no"?>
<svg viewBox="0 0 200 200" xmlns="http://www.w3.org/2000/svg">
  <path fill="#FF0066" d="M36.2,-57.5C48.1,-48.7,59.7,-40.6,65.2,-29.5C70.7,-18.4,70,-4.2,70.3,11.8C70.6,27.7,71.7,45.4,63.2,54.3C54.8,63.1,36.6,63.1,20.9,64.7C5.2,66.3,-8.1,69.6,-19.9,66.6C-31.7,63.7,-42,54.5,-53.7,44.6C-65.5,34.6,-78.7,23.9,-81,11.3C-83.3,-1.2,-74.6,-15.7,-65,-26.7C-55.3,-37.7,-44.7,-45.3,-33.7,-54.6C-22.7,-63.8,-11.3,-74.6,0.4,-75.3C12.1,-75.9,24.3,-66.3,36.2,-57.5Z" transform="translate(100 100)" />
</svg>
